<?xml version="1.0" encoding="UTF-8" standalone="no"?>
<!-- Created with Inkscape (http://www.inkscape.org/) -->

<svg
   xmlns:dc="http://purl.org/dc/elements/1.1/"
   xmlns:cc="http://creativecommons.org/ns#"
   xmlns:rdf="http://www.w3.org/1999/02/22-rdf-syntax-ns#"
   xmlns:svg="http://www.w3.org/2000/svg"
   xmlns="http://www.w3.org/2000/svg"
   xmlns:xlink="http://www.w3.org/1999/xlink"
   xmlns:sodipodi="http://sodipodi.sourceforge.net/DTD/sodipodi-0.dtd"
   xmlns:inkscape="http://www.inkscape.org/namespaces/inkscape"
   width="35"
   height="35"
   id="svg5581"
   version="1.1"
   inkscape:version="0.48.3.1 r9886"
   sodipodi:docname="login_input.svg">
  <defs
     id="defs5583">
    <linearGradient
       inkscape:collect="always"
       xlink:href="#linearGradient4391"
       id="linearGradient4598"
       x1="56.54784"
       y1="822.02319"
       x2="56.54784"
       y2="839.15912"
       gradientUnits="userSpaceOnUse" />
    <linearGradient
       id="linearGradient4391">
      <stop
         style="stop-color:#ffffff;stop-opacity:1;"
         offset="0"
         id="stop4393" />
      <stop
         style="stop-color:#e6e6e6;stop-opacity:1;"
         offset="1"
         id="stop4395" />
    </linearGradient>
    <linearGradient
       gradientTransform="matrix(1.019546,0,0,0.99852181,-40.814231,-87.422759)"
       y2="839.15912"
       x2="56.54784"
       y1="822.02319"
       x1="56.54784"
       gradientUnits="userSpaceOnUse"
       id="linearGradient5605"
       xlink:href="#linearGradient4391"
       inkscape:collect="always" />
  </defs>
  <sodipodi:namedview
     id="base"
     pagecolor="#ffffff"
     bordercolor="#666666"
     borderopacity="1.0"
     inkscape:pageopacity="0.0"
     inkscape:pageshadow="2"
     inkscape:zoom="11.313708"
     inkscape:cx="-8.9179748"
     inkscape:cy="13.882712"
     inkscape:current-layer="layer1"
     inkscape:document-units="px"
     showgrid="false"
     inkscape:window-width="1920"
     inkscape:window-height="1024"
     inkscape:window-x="0"
     inkscape:window-y="27"
     inkscape:window-maximized="1"
     inkscape:snap-object-midpoints="true" />
  <metadata
     id="metadata5586">
    <rdf:RDF>
      <cc:Work
         rdf:about="">
        <dc:format>image/svg+xml</dc:format>
        <dc:type
           rdf:resource="http://purl.org/dc/dcmitype/StillImage" />
        <dc:title></dc:title>
      </cc:Work>
    </rdf:RDF>
  </metadata>
  <g
     id="layer1"
     inkscape:label="Layer 1"
     inkscape:groupmode="layer"
     transform="translate(0,-733)">
    <path
       style="fill:url(#linearGradient5605);fill-opacity:1;stroke:#cccccc;stroke-width:0.78696662;stroke-miterlimit:4;stroke-opacity:1"
       d="m 6.5107596,733.38533 28.0875154,0 c 0,11.05469 0,21.06936 0,34.22119 l -28.0875154,0 c -3.3889711,0 -6.11727629,-2.67205 -6.11727629,-5.99113 l 0,-22.23893 c 0,-3.31909 2.72830519,-5.99113 6.11727629,-5.99113 z"
       id="rect4589"
       inkscape:connector-curvature="0"
       sodipodi:nodetypes="sccssss" />
    <path
       style="fill:#33333f;fill-opacity:0.94117647"
       inkscape:connector-curvature="0"
       d="m 29.23736,749.62269 -1.931757,-1.94928 H 15.990342 c -0.967437,-1.70448 -2.783035,-2.85504 -4.867433,-2.85047 -3.1053537,-0.006 -5.6200698,2.53415 -5.6270298,5.66375 0.007,3.13703 2.5216761,5.67743 5.6270298,5.68223 2.078638,-0.004 3.890154,-1.15032 4.859273,-2.85024 h 2.275917 l 1.802877,-1.8024 1.379278,1.37976 1.324077,-1.32432 1.360558,1.36008 1.379277,-1.37855 1.379278,1.37855 2.354156,-2.35319 c 0.340079,-0.35448 0.348719,-0.60312 -2.4e-4,-0.95592 z m -20.5782857,2.35416 c -0.829919,-0.008 -1.497357,-0.68305 -1.489677,-1.50864 -0.0077,-0.83688 0.659758,-1.51176 1.489677,-1.50792 0.816239,-0.004 1.4836777,0.67104 1.4899177,1.50792 -0.006,0.82559 -0.6734387,1.50072 -1.4899177,1.50864 z"
       id="path3" />
  </g>
</svg>
