<?xml version="1.0" encoding="UTF-8" standalone="no"?>
<!-- Created with Inkscape (http://www.inkscape.org/) -->

<svg
   xmlns:dc="http://purl.org/dc/elements/1.1/"
   xmlns:cc="http://creativecommons.org/ns#"
   xmlns:rdf="http://www.w3.org/1999/02/22-rdf-syntax-ns#"
   xmlns:svg="http://www.w3.org/2000/svg"
   xmlns="http://www.w3.org/2000/svg"
   xmlns:sodipodi="http://sodipodi.sourceforge.net/DTD/sodipodi-0.dtd"
   xmlns:inkscape="http://www.inkscape.org/namespaces/inkscape"
   width="24"
   height="24"
   id="svg5744"
   version="1.1"
   inkscape:version="0.48.3.1 r9886"
   sodipodi:docname="gear.svg">
  <defs
     id="defs5746" />
  <sodipodi:namedview
     id="base"
     pagecolor="#ffffff"
     bordercolor="#666666"
     borderopacity="1.0"
     inkscape:pageopacity="0.0"
     inkscape:pageshadow="2"
     inkscape:zoom="11.313708"
     inkscape:cx="25.256836"
     inkscape:cy="3.6663691"
     inkscape:current-layer="layer1"
     inkscape:document-units="px"
     showgrid="false"
     inkscape:window-width="1920"
     inkscape:window-height="1024"
     inkscape:window-x="0"
     inkscape:window-y="27"
     inkscape:window-maximized="1" />
  <metadata
     id="metadata5749">
    <rdf:RDF>
      <cc:Work
         rdf:about="">
        <dc:format>image/svg+xml</dc:format>
        <dc:type
           rdf:resource="http://purl.org/dc/dcmitype/StillImage" />
        <dc:title></dc:title>
      </cc:Work>
    </rdf:RDF>
  </metadata>
  <g
     id="layer1"
     inkscape:label="Layer 1"
     inkscape:groupmode="layer"
     transform="translate(0,-744)">
    <path
       inkscape:connector-curvature="0"
       id="path9"
       d="m 8.8854357,744.37265 c -0.1648992,0.015 -0.2793189,0.033 -0.3753036,0.0885 -0.4392618,0.12601 -0.8600692,0.28352 -1.2808736,0.44133 0.1467747,1.06791 0.3390651,2.06683 0.5313541,3.06559 -0.1599446,0.0915 -0.3198876,0.18496 -0.4478448,0.25876 -0.063975,0.0375 -0.095969,0.054 -0.1279496,0.0735 -0.3653795,0.25381 -0.6988032,0.48933 -1.0137409,0.7565 -0.2694173,0.19861 -0.5019241,0.46097 -0.7344191,0.72334 -0.936599,-0.44073 -1.9051883,-0.86285 -2.8233179,-1.27148 -0.050459,-0.015 -0.050459,-0.015 -0.050459,-0.015 -0.1550006,0.17491 -0.3099893,0.34997 -0.414527,0.53838 -0.2460128,0.31292 -0.4415658,0.63934 -0.6186538,0.99787 -0.3185632,0.48287 -0.568197,1.01136 -0.74890602,1.5853 0,0 0,0 0.0184799,0.033 0.84558532,0.57859 1.65918002,1.17577 2.50475932,1.75436 -0.09465,0.35357 -0.1757575,0.65644 -0.2199414,1.02352 -0.1081647,0.40412 -0.1474046,0.8537 -0.1546421,1.28482 l 0,0 c -0.022095,0.18346 -0.01215,0.34847 0.01617,0.54559 C 1.9575923,756.614 0.96956442,756.97147 0,757.36104 c 0.06167984,0.47673 0.12335967,0.95331 0.23550088,1.44338 0.24141835,0.71436 0.46437026,1.3966 0.7513,2.04193 1.01639432,-0.16036 2.03278712,-0.32087 3.04918582,-0.48123 0.073875,0.12751 0.1662146,0.28817 0.2585574,0.44808 0.2031595,0.35238 0.4567712,0.7181 0.7743625,1.04677 0.2166758,0.30182 0.4973281,0.56643 0.7779849,0.83105 -0.4402459,0.93755 -0.8484983,1.85651 -1.2702702,2.82602 0.9379266,0.73864 1.9988602,1.32098 3.1188202,1.78375 0,0 0,0 0.03198,-0.018 0.5780954,-0.84635 1.1746589,-1.66075 1.7847432,-2.5254 l 0,0 c 0.3027443,0.081 0.5870193,0.12901 0.8897623,0.21136 0.435649,0.0885 0.916807,0.11102 1.429953,0.11252 0.132915,0.015 0.297799,0 0.481158,0.021 0.33871,0.95691 0.727882,1.92733 1.11705,2.89773 0.444219,-0.0435 0.86997,-0.1185 1.309243,-0.24437 0.114465,-0.024 0.343296,-0.0705 0.700055,-0.19126 0.521711,-0.1305 1.006497,-0.32551 1.459286,-0.50178 -0.146775,-1.06791 -0.307076,-2.08513 -0.517833,-3.11599 0.127949,-0.0735 0.255908,-0.14851 0.383864,-0.22186 l 0.03198,-0.018 c 0.383865,-0.22186 0.717258,-0.45723 1.032214,-0.72455 0.28295,-0.24886 0.547434,-0.52998 0.811917,-0.8108 0,0 0.01848,0.0315 0.05046,0.015 0.936599,0.44058 1.905188,0.86286 2.84179,1.30328 0.104535,-0.1884 0.227542,-0.34487 0.318561,-0.48287 0.246012,-0.31277 0.441566,-0.63934 0.637122,-0.96591 0.313616,-0.56524 0.576767,-1.14442 0.789469,-1.73681 -0.832066,-0.62914 -1.677647,-1.20772 -2.5417,-1.81841 l 0,0 c 0.08112,-0.30302 0.130244,-0.58758 0.211373,-0.89061 0.05771,-0.41762 0.09695,-0.86719 0.122654,-1.26622 -0.01848,-0.0315 -0.0049,-0.0825 -0.0234,-0.11401 0.0085,-0.13201 -0.0013,-0.29807 0.0072,-0.43112 0.988027,-0.35747 1.957588,-0.74705 2.94562,-1.10453 -0.06168,-0.47658 -0.15536,-0.93485 -0.26749,-1.42508 -0.0234,-0.11401 -0.04685,-0.22891 -0.08871,-0.37562 -0.02342,-0.11401 -0.07883,-0.21047 -0.08871,-0.37562 -0.176119,-0.45318 -0.320244,-0.92481 -0.50988,-1.32759 -1.034863,0.12752 -2.064777,0.33947 -3.081175,0.49983 -0.07388,-0.1275 -0.129285,-0.2241 -0.221622,-0.38417 -0.221625,-0.38417 -0.493709,-0.782 -0.811298,-1.11067 -0.198208,-0.26971 -0.460392,-0.50252 -0.690588,-0.75364 0.440242,-0.93756 0.862016,-1.90707 1.251799,-2.85798 0,0 0,0 0.03198,-0.018 -0.937925,-0.73879 -1.966873,-1.33943 -3.150812,-1.76515 l 0,0 c -0.628553,0.83284 -1.206646,1.67905 -1.784739,2.52555 -0.353202,-0.0945 -0.706405,-0.18946 -1.041139,-0.25217 -0.417179,-0.057 -0.834358,-0.11551 -1.246588,-0.09 -0.151381,-0.0405 -0.31627,-0.03 -0.449171,-0.039 -0.389168,-0.97057 -0.746351,-1.95943 -1.135519,-2.92983 -0.476205,0.063 -0.9844047,0.14251 -1.4741354,0.25411 -0.1144647,0.024 -0.2608103,0.066 -0.3568311,0.12001 z m 0.9573904,15.41299 C 8.7634244,759.17135 8.0814108,758.28479 7.7783066,757.09388 7.443218,755.9214 7.60776,754.80174 8.2214639,753.72137 c 0.6001844,-1.02982 1.517963,-1.73095 2.6573611,-2.04793 1.189851,-0.30347 2.322018,-0.18916 3.369428,0.44343 1.079399,0.61428 1.76142,1.50099 2.064518,2.69192 0.335088,1.17247 0.170551,2.29198 -0.429635,3.32195 -0.645693,1.09897 -1.531481,1.78166 -2.689347,2.06637 -1.1714,0.33542 -2.32202,0.18916 -3.3509629,-0.41147 z"
       style="fill:#333333;fill-opacity:1" />
  </g>
</svg>
