<?xml version="1.0" encoding="UTF-8" standalone="no"?>
<!-- Created with Inkscape (http://www.inkscape.org/) -->

<svg
   xmlns:dc="http://purl.org/dc/elements/1.1/"
   xmlns:cc="http://creativecommons.org/ns#"
   xmlns:rdf="http://www.w3.org/1999/02/22-rdf-syntax-ns#"
   xmlns:svg="http://www.w3.org/2000/svg"
   xmlns="http://www.w3.org/2000/svg"
   xmlns:xlink="http://www.w3.org/1999/xlink"
   xmlns:sodipodi="http://sodipodi.sourceforge.net/DTD/sodipodi-0.dtd"
   xmlns:inkscape="http://www.inkscape.org/namespaces/inkscape"
   width="35"
   height="35"
   id="svg5581"
   version="1.1"
   inkscape:version="0.48.3.1 r9886"
   sodipodi:docname="Новый документ 2">
  <defs
     id="defs5583">
    <linearGradient
       inkscape:collect="always"
       xlink:href="#linearGradient4391"
       id="linearGradient4598"
       x1="56.54784"
       y1="822.02319"
       x2="56.54784"
       y2="839.15912"
       gradientUnits="userSpaceOnUse" />
    <linearGradient
       id="linearGradient4391">
      <stop
         style="stop-color:#ffffff;stop-opacity:1;"
         offset="0"
         id="stop4393" />
      <stop
         style="stop-color:#e6e6e6;stop-opacity:1;"
         offset="1"
         id="stop4395" />
    </linearGradient>
    <linearGradient
       gradientTransform="matrix(1.019546,0,0,0.99852181,-40.814231,-87.422759)"
       y2="839.15912"
       x2="56.54784"
       y1="822.02319"
       x1="56.54784"
       gradientUnits="userSpaceOnUse"
       id="linearGradient5605"
       xlink:href="#linearGradient4391"
       inkscape:collect="always" />
  </defs>
  <sodipodi:namedview
     id="base"
     pagecolor="#ffffff"
     bordercolor="#666666"
     borderopacity="1.0"
     inkscape:pageopacity="0.0"
     inkscape:pageshadow="2"
     inkscape:zoom="11.313708"
     inkscape:cx="-8.974225"
     inkscape:cy="13.857662"
     inkscape:current-layer="layer1"
     inkscape:document-units="px"
     showgrid="false"
     inkscape:window-width="1920"
     inkscape:window-height="1024"
     inkscape:window-x="0"
     inkscape:window-y="27"
     inkscape:window-maximized="1" />
  <metadata
     id="metadata5586">
    <rdf:RDF>
      <cc:Work
         rdf:about="">
        <dc:format>image/svg+xml</dc:format>
        <dc:type
           rdf:resource="http://purl.org/dc/dcmitype/StillImage" />
        <dc:title></dc:title>
      </cc:Work>
    </rdf:RDF>
  </metadata>
  <g
     id="layer1"
     inkscape:label="Layer 1"
     inkscape:groupmode="layer"
     transform="translate(0,-733)">
    <path
       style="fill:url(#linearGradient5605);fill-opacity:1;stroke:#cccccc;stroke-width:0.78696662;stroke-miterlimit:4;stroke-opacity:1"
       d="m 6.5107596,733.38533 28.0875154,0 c 0,11.05469 0,21.06936 0,34.22119 l -28.0875154,0 c -3.3889711,0 -6.11727629,-2.67205 -6.11727629,-5.99113 l 0,-22.23893 c 0,-3.31909 2.72830519,-5.99113 6.11727629,-5.99113 z"
       id="rect4589"
       inkscape:connector-curvature="0"
       sodipodi:nodetypes="sccssss" />
    <path
       inkscape:connector-curvature="0"
       d="m 29.153639,757.6196 c -0.50784,-2.62056 -7.49664,-2.34192 -9.18096,-4.3944 -0.3552,-0.43321 -0.3552,-0.43321 -0.11712,-2.04169 0.40656,-1.80047 0.77496,-0.68304 1.35624,-4.27416 0.48816,-3.01584 -0.55344,-5.60736 -3.71592,-5.60736 -3.16248,0 -4.20408,2.59152 -3.71592,5.60736 0.58128,3.59112 0.94944,2.47368 1.35624,4.27416 0.23808,1.60848 0.23808,1.60848 -0.11712,2.04169 -1.68432,2.05247 -8.67312,1.77383 -9.18096,4.3944 -0.0602,0.31008 -0.34224,2.02656 -0.34224,2.02656 h 24 c 0,0 -0.282,-1.71648 -0.34224,-2.02656 z"
       id="path3-0"
       style="opacity:0.98000004;fill:#333333;fill-opacity:1" />
  </g>
</svg>
