<?xml version="1.0" encoding="UTF-8" standalone="no"?>
<!-- Created with Inkscape (http://www.inkscape.org/) -->

<svg
   xmlns:dc="http://purl.org/dc/elements/1.1/"
   xmlns:cc="http://creativecommons.org/ns#"
   xmlns:rdf="http://www.w3.org/1999/02/22-rdf-syntax-ns#"
   xmlns:svg="http://www.w3.org/2000/svg"
   xmlns="http://www.w3.org/2000/svg"
   xmlns:sodipodi="http://sodipodi.sourceforge.net/DTD/sodipodi-0.dtd"
   xmlns:inkscape="http://www.inkscape.org/namespaces/inkscape"
   width="60"
   height="60"
   id="svg3151"
   version="1.1"
   inkscape:version="0.48.3.1 r9886"
   sodipodi:docname="progress.svg">
  <defs
     id="defs3153" />
  <sodipodi:namedview
     id="base"
     pagecolor="#ffffff"
     bordercolor="#666666"
     borderopacity="1.0"
     inkscape:pageopacity="0.0"
     inkscape:pageshadow="2"
     inkscape:zoom="4.8648947"
     inkscape:cx="0.17934799"
     inkscape:cy="16.635375"
     inkscape:document-units="px"
     inkscape:current-layer="layer1"
     showgrid="false"
     inkscape:window-width="1920"
     inkscape:window-height="1024"
     inkscape:window-x="0"
     inkscape:window-y="27"
     inkscape:window-maximized="1" />
  <metadata
     id="metadata3156">
    <rdf:RDF>
      <cc:Work
         rdf:about="">
        <dc:format>image/svg+xml</dc:format>
        <dc:type
           rdf:resource="http://purl.org/dc/dcmitype/StillImage" />
        <dc:title></dc:title>
      </cc:Work>
    </rdf:RDF>
  </metadata>
  <g
     inkscape:label="Layer 1"
     inkscape:groupmode="layer"
     id="layer1"
     transform="translate(0,-992.36218)">
    <g
       id="g3007"
       transform="matrix(-0.36534793,0,0,0.34381445,91.900379,901.6671)"
       style="fill:#4d4d4d">
      <path
         inkscape:transform-center-y="-75.256365"
         d="m 181.42858,280.93362 c 0,9.46774 -7.67512,17.14286 -17.14286,17.14286 -9.46774,0 -17.14286,-7.67512 -17.14286,-17.14286 0,-9.46773 7.67512,-17.14285 17.14286,-17.14285 9.46774,0 17.14286,7.67512 17.14286,17.14285 z"
         sodipodi:ry="17.142857"
         sodipodi:rx="17.142857"
         sodipodi:cy="280.93362"
         sodipodi:cx="164.28572"
         id="path2985"
         style="fill:#4d4d4d;fill-opacity:1;stroke:none"
         sodipodi:type="arc" />
      <path
         inkscape:transform-center-x="-33.865366"
         transform="matrix(0.77942286,0.45,-0.45,0.77942286,200.28599,-1.8785985)"
         sodipodi:type="arc"
         style="fill:#4d4d4d;fill-opacity:1;stroke:none"
         id="path2987"
         sodipodi:cx="164.28572"
         sodipodi:cy="280.93362"
         sodipodi:rx="17.142857"
         sodipodi:ry="17.142857"
         d="m 181.42858,280.93362 c 0,9.46774 -7.67512,17.14286 -17.14286,17.14286 -9.46774,0 -17.14286,-7.67512 -17.14286,-17.14286 0,-9.46773 7.67512,-17.14285 17.14286,-17.14285 9.46774,0 17.14286,7.67512 17.14286,17.14285 z"
         inkscape:transform-center-y="-58.656532" />
      <path
         inkscape:transform-center-y="-30.102546"
         d="m 181.42858,280.93362 c 0,9.46774 -7.67512,17.14286 -17.14286,17.14286 -9.46774,0 -17.14286,-7.67512 -17.14286,-17.14286 0,-9.46773 7.67512,-17.14285 17.14286,-17.14285 9.46774,0 17.14286,7.67512 17.14286,17.14285 z"
         sodipodi:ry="17.142857"
         sodipodi:rx="17.142857"
         sodipodi:cy="280.93362"
         sodipodi:cx="164.28572"
         id="path2989"
         style="fill:#4d4d4d;fill-opacity:1;stroke:none"
         sodipodi:type="arc"
         transform="matrix(0.4,0.69282032,-0.69282032,0.4,358.38188,92.367872)"
         inkscape:transform-center-x="-52.139139" />
      <path
         inkscape:transform-center-x="-52.679453"
         transform="matrix(0,0.7,-0.7,0,436.19562,241.18999)"
         sodipodi:type="arc"
         style="fill:#4d4d4d;fill-opacity:1;stroke:none"
         id="path2991"
         sodipodi:cx="164.28572"
         sodipodi:cy="280.93362"
         sodipodi:rx="17.142857"
         sodipodi:ry="17.142857"
         d="m 181.42858,280.93362 c 0,9.46774 -7.67512,17.14286 -17.14286,17.14286 -9.46774,0 -17.14286,-7.67512 -17.14286,-17.14286 0,-9.46773 7.67512,-17.14285 17.14286,-17.14285 9.46774,0 17.14286,7.67512 17.14286,17.14285 z" />
      <path
         inkscape:transform-center-y="22.576912"
         d="m 181.42858,280.93362 c 0,9.46774 -7.67512,17.14286 -17.14286,17.14286 -9.46774,0 -17.14286,-7.67512 -17.14286,-17.14286 0,-9.46773 7.67512,-17.14285 17.14286,-17.14285 9.46774,0 17.14286,7.67512 17.14286,17.14285 z"
         sodipodi:ry="17.142857"
         sodipodi:rx="17.142857"
         sodipodi:cy="280.93362"
         sodipodi:cx="164.28572"
         id="path2993"
         style="fill:#4d4d4d;fill-opacity:1;stroke:none"
         sodipodi:type="arc"
         transform="matrix(-0.3,0.51961524,-0.51961524,-0.3,424.72275,392.7329)"
         inkscape:transform-center-x="-39.104351" />
      <path
         inkscape:transform-center-x="-18.81409"
         transform="matrix(-0.4330127,0.25,-0.25,-0.4330127,343.28511,501.94031)"
         sodipodi:type="arc"
         style="fill:#4d4d4d;fill-opacity:1;stroke:none"
         id="path2995"
         sodipodi:cx="164.28572"
         sodipodi:cy="280.93362"
         sodipodi:rx="17.142857"
         sodipodi:ry="17.142857"
         d="m 181.42858,280.93362 c 0,9.46774 -7.67512,17.14286 -17.14286,17.14286 -9.46774,0 -17.14286,-7.67512 -17.14286,-17.14286 0,-9.46773 7.67512,-17.14285 17.14286,-17.14285 9.46774,0 17.14286,7.67512 17.14286,17.14285 z"
         inkscape:transform-center-y="32.586959" />
      <path
         inkscape:transform-center-y="30.102551"
         d="m 181.42858,280.93362 c 0,9.46774 -7.67512,17.14286 -17.14286,17.14286 -9.46774,0 -17.14286,-7.67512 -17.14286,-17.14286 0,-9.46773 7.67512,-17.14285 17.14286,-17.14285 9.46774,0 17.14286,7.67512 17.14286,17.14285 z"
         sodipodi:ry="17.142857"
         sodipodi:rx="17.142857"
         sodipodi:cy="280.93362"
         sodipodi:cx="164.28572"
         id="path2997"
         style="fill:#4d4d4d;fill-opacity:1;stroke:none"
         sodipodi:type="arc"
         transform="matrix(-0.4,0,0,-0.4,230.00001,543.81981)" />
      <path
         inkscape:transform-center-x="11.288459"
         transform="matrix(-0.25980762,-0.15,0.15,-0.25980762,127.20017,518.99547)"
         sodipodi:type="arc"
         style="fill:#4d4d4d;fill-opacity:1;stroke:none"
         id="path2999"
         sodipodi:cx="164.28572"
         sodipodi:cy="280.93362"
         sodipodi:rx="17.142857"
         sodipodi:ry="17.142857"
         d="m 181.42858,280.93362 c 0,9.46774 -7.67512,17.14286 -17.14286,17.14286 -9.46774,0 -17.14286,-7.67512 -17.14286,-17.14286 0,-9.46773 7.67512,-17.14285 17.14286,-17.14285 9.46774,0 17.14286,7.67512 17.14286,17.14285 z"
         inkscape:transform-center-y="19.552178" />
      <path
         inkscape:transform-center-y="7.5256316"
         d="m 181.42858,280.93362 c 0,9.46774 -7.67512,17.14286 -17.14286,17.14286 -9.46774,0 -17.14286,-7.67512 -17.14286,-17.14286 0,-9.46773 7.67512,-17.14285 17.14286,-17.14285 9.46774,0 17.14286,7.67512 17.14286,17.14285 z"
         sodipodi:ry="17.142857"
         sodipodi:rx="17.142857"
         sodipodi:cy="280.93362"
         sodipodi:cx="164.28572"
         id="path3001"
         style="fill:#4d4d4d;fill-opacity:1;stroke:none"
         sodipodi:type="arc"
         transform="matrix(-0.1,-0.17320508,0.17320508,-0.1,66.881233,450.36665)"
         inkscape:transform-center-x="13.034786" />
      <path
         inkscape:transform-center-x="75.256365"
         transform="matrix(0,-0.1,0.1,0,60.935992,372.61856)"
         sodipodi:type="arc"
         style="fill:#4d4d4d;fill-opacity:1;stroke:none"
         id="path3003"
         sodipodi:cx="164.28572"
         sodipodi:cy="280.93362"
         sodipodi:rx="17.142857"
         sodipodi:ry="17.142857"
         d="m 181.42858,280.93362 c 0,9.46774 -7.67512,17.14286 -17.14286,17.14286 -9.46774,0 -17.14286,-7.67512 -17.14286,-17.14286 0,-9.46773 7.67512,-17.14285 17.14286,-17.14285 9.46774,0 17.14286,7.67512 17.14286,17.14285 z" />
    </g>
  </g>
</svg>
